<?xml version="1.0" encoding="UTF-8"?>
<svg version="1.1" xmlns="http://www.w3.org/2000/svg" width="583" height="340">
<path d="M0 0 C192.39 0 384.78 0 583 0 C583 112.2 583 224.4 583 340 C390.61 340 198.22 340 0 340 C0 227.8 0 115.6 0 0 Z " fill="#0C0F16" transform="translate(0,0)"/>
<path d="M0 0 C4.61498707 4.30732127 6.60936626 8.58422592 7.3359375 14.9375 C7.64722637 39.34254728 -6.89403973 59.89110447 -23 77 C-23.53882813 77.60328125 -24.07765625 78.2065625 -24.6328125 78.828125 C-27.87455544 82.31422043 -31.33988045 84.95359824 -35.27880859 87.58862305 C-41.86280296 92.02595565 -45.81043245 95.11996295 -48 103 C-48.37898438 104.01964844 -48.75796875 105.03929687 -49.1484375 106.08984375 C-52.00427939 113.92177377 -54.01275801 121.86343805 -55.8125 130 C-56.03156006 130.9792041 -56.25062012 131.9584082 -56.47631836 132.96728516 C-57.56660687 138.08869682 -58.2545019 142.76453234 -58 148 C-57.25556641 146.47632813 -57.25556641 146.47632813 -56.49609375 144.921875 C-35.66982244 102.57701773 -35.66982244 102.57701773 -15 93 C-11.375 92.125 -11.375 92.125 -8 92 C-6.741875 91.896875 -5.48375 91.79375 -4.1875 91.6875 C2.11081988 91.83368924 7.63934825 93.89115111 12.34375 98.09375 C17.9261062 104.16152848 20.5187654 109.00453816 20.30859375 117.3125 C19.48412266 124.49270396 16.52892072 130.53290202 11.1875 135.40234375 C3.53468089 140.99163485 -5.44667659 145.16164676 -15 145 C-13.95205445 154.28180344 -10.36062855 164.74436251 -3.56640625 171.375 C0.62481997 174.02880534 4.20708999 173.91702912 9 173 C24.25170341 166.45990608 33.29312175 148.28856672 40 134 C41.32 134.66 42.64 135.32 44 136 C43.52349545 142.12359037 40.77048899 146.9269727 37.9375 152.25 C37.19040771 153.6589856 37.19040771 153.6589856 36.42822266 155.09643555 C28.96723355 168.8869064 19.31603157 180.89465614 4 186 C-1.70932154 186.46497812 -7.07997021 186.85334657 -12.375 184.5 C-18.88660659 178.29846991 -23.446523 172.30886535 -27 164 C-27.4640625 162.95585937 -27.4640625 162.95585937 -27.9375 161.890625 C-30.68184343 154.87143893 -30.71544754 147.44742471 -31 140 C-30.15405273 139.72905518 -30.15405273 139.72905518 -29.29101562 139.45263672 C-26.68861558 138.60914793 -24.09456251 137.74228353 -21.5 136.875 C-20.613125 136.59140625 -19.72625 136.3078125 -18.8125 136.015625 C-11.71797944 133.61600775 -5.80599643 130.41980815 -1 124.5625 C0.34475339 121.11656944 0.45876731 118.67013846 0 115 C-1.79562405 112.24670979 -3.05254922 110.47372539 -6 109 C-14.54710492 108.41054449 -20.35782804 110.34130446 -26.9375 115.8125 C-41.25007768 129.40177743 -49.82702139 150.86455537 -56.4921875 169.03125 C-56.87093018 170.04046509 -56.87093018 170.04046509 -57.25732422 171.07006836 C-57.95757104 172.94867266 -58.63576594 174.83545443 -59.3125 176.72265625 C-61.39949855 180.77587797 -63.28451464 182.40060972 -67 185 C-70.80960256 185.69972292 -72.38682453 185.34839515 -75.75 183.4375 C-80.19031416 178.62715966 -80.2905205 172.3618639 -80.625 166.0625 C-80.66367187 165.37865234 -80.70234375 164.69480469 -80.7421875 163.99023438 C-80.83522412 162.32720487 -80.91863787 160.66364153 -81 159 C-81.46148437 159.61746094 -81.92296875 160.23492187 -82.3984375 160.87109375 C-94.28379496 176.30326736 -110.30953888 188.13708966 -130 191 C-139.29615485 191.78028507 -147.85019694 190.48516634 -155.3671875 184.62890625 C-161.75376264 178.25761 -164.0333472 170.76654092 -165 162 C-165.721875 162.721875 -166.44375 163.44375 -167.1875 164.1875 C-168.115625 165.115625 -169.04375 166.04375 -170 167 C-171.3303125 168.3921875 -171.3303125 168.3921875 -172.6875 169.8125 C-175 172 -175 172 -177 172 C-177 172.66 -177 173.32 -177 174 C-187.58004341 182.07117282 -196.64685639 185.38300416 -210 184 C-215.36295686 182.53987989 -218.38708349 178.84531667 -221.06640625 174.171875 C-222.53024034 170.76647017 -222.80236617 167.68916489 -223 164 C-225.70728217 166.68722823 -228.3846448 169.39422481 -231.015625 172.15625 C-236.84086274 178.21127839 -242.15180974 183.62366186 -250 187 C-250.66 187.33 -251.32 187.66 -252 188 C-267.39196329 189.31716067 -267.39196329 189.31716067 -273.48828125 184.609375 C-278.37137243 179.41083865 -279.79545736 172.84687396 -281 166 C-281.35449219 166.47308594 -281.70898438 166.94617188 -282.07421875 167.43359375 C-290.17681431 177.49807685 -303.01283171 186.63992559 -316.11425781 188.26171875 C-318.37240546 188.4391376 -320.61031076 188.52688395 -322.875 188.5625 C-323.57657227 188.57740479 -324.27814453 188.59230957 -325.00097656 188.60766602 C-331.22717763 188.48257947 -335.23220754 186.40180337 -339.890625 182.359375 C-347.183642 173.7251135 -347.85918941 165.18291346 -347.21142578 154.25683594 C-346.59431302 147.66954911 -344.83019235 141.33766388 -343 135 C-342.75910645 134.16436523 -342.51821289 133.32873047 -342.27001953 132.46777344 C-340.80644448 127.43994074 -339.29154496 122.42932016 -337.74560547 117.42626953 C-336.47478261 113.29089377 -335.23816331 109.1452505 -334 105 C-334.94875 105.020625 -335.8975 105.04125 -336.875 105.0625 C-340 105 -340 105 -342 104 C-342 101.36 -342 98.72 -342 96 C-338.04 96 -334.08 96 -330 96 C-329.53851563 94.84886719 -329.07703125 93.69773437 -328.6015625 92.51171875 C-307.73006617 41.24658173 -307.73006617 41.24658173 -289 29 C-285.75242173 28.59405272 -283.66750283 28.73651204 -280.625 29.9375 C-278.39344499 32.76985828 -278.42473189 34.84320799 -278.64331055 38.3840332 C-279.87320398 47.40409351 -285.367172 55.30177559 -290.0625 62.875 C-295.02001507 70.99733831 -299.86468433 79.1541709 -304.4375 87.5 C-304.90357666 88.34804199 -305.36965332 89.19608398 -305.84985352 90.06982422 C-307.97721816 93.3616076 -307.97721816 93.3616076 -309 97 C-304.82316455 97.02511278 -300.64637155 97.04305063 -296.46948242 97.05493164 C-295.05476107 97.05989558 -293.64004467 97.06666892 -292.2253418 97.07543945 C-283.1058359 97.13047375 -274.08749549 96.8668253 -265 96 C-265 98.64 -265 101.28 -265 104 C-268.30666922 105.65333461 -272.02064449 105.46997854 -275.6640625 105.71875 C-276.96312027 105.81295227 -276.96312027 105.81295227 -278.28842163 105.90905762 C-281.06701144 106.11003315 -283.84595866 106.3053758 -286.625 106.5 C-289.38255732 106.69534908 -292.14001149 106.89194977 -294.89730835 107.09094238 C-296.61347373 107.21457211 -298.32979717 107.33603367 -300.04629517 107.45495605 C-305.05886129 107.81338261 -310.0185648 108.33495236 -315 109 C-327.40502389 137.8549162 -327.40502389 137.8549162 -325.8125 168.1875 C-323.67230948 171.5084853 -322.52149771 173.13145019 -319 175 C-315.00466334 175.61546962 -311.03809508 175.87119314 -307 176 C-307 175.34 -307 174.68 -307 174 C-306.38253906 173.79246094 -305.76507813 173.58492187 -305.12890625 173.37109375 C-298.38717758 170.9186232 -293.37080466 167.719512 -288 163 C-286.85337891 162.06414062 -286.85337891 162.06414062 -285.68359375 161.109375 C-279.99964941 156.06980337 -277.318027 150.90723921 -274.51855469 144.01708984 C-265.32135724 121.38477063 -246.83705232 103.91018397 -224.77734375 94.09375 C-216.54904189 90.85334983 -205.16261275 90.17411887 -196.875 93.6875 C-190.9708036 96.89875186 -186.31268056 100.44740508 -184 107 C-183.44511816 110.91499966 -183.61992408 114.14482917 -185.25 117.8125 C-188.0542578 121.31782225 -190.54742051 123.20489652 -195 124 C-193.989375 124.70125 -192.97875 125.4025 -191.9375 126.125 C-190.21484375 127.3203125 -190.21484375 127.3203125 -189 129 C-189.22540863 133.33615029 -190.54097875 136.46348281 -192.6875 140.1875 C-193.21988281 141.14011719 -193.75226563 142.09273437 -194.30078125 143.07421875 C-195.41374199 144.99055804 -196.55618371 146.89014504 -197.73046875 148.76953125 C-201.53142944 155.08038998 -203.55131383 160.58015011 -202 168 C-200.56338572 170.27703028 -200.56338572 170.27703028 -199 172 C-187.66536987 171.58019888 -179.97832882 164.87913953 -172.47265625 156.83984375 C-166.95637188 150.50439551 -163.90159886 143.9508783 -161.125 136.125 C-154.82900328 118.45325847 -142.40916532 104.81092595 -126 96 C-118.18589431 92.45534046 -108.36676019 91.13330929 -100.125 94.0625 C-95.72930754 96.78782932 -92.32639886 100.34720227 -90 105 C-89.18401898 113.57448911 -89.87334023 120.8268098 -95.35546875 127.69921875 C-96.8125 129.125 -96.8125 129.125 -100 131 C-104.04782457 130.93253626 -106.10346497 130.89653503 -109 128 C-108.74819955 123.46759195 -106.49550595 120.66527436 -104 117 C-102.47684938 113.19212346 -102.86763587 109.037106 -103 105 C-104.18180682 103.61354631 -104.18180682 103.61354631 -107.5 103.5625 C-113.13784889 103.64318478 -116.75258911 106.55427828 -121 110 C-121.89525391 110.72509766 -121.89525391 110.72509766 -122.80859375 111.46484375 C-135.53287278 123.01366975 -144.40950069 142.1912447 -145.4375 159.1875 C-144.73728503 165.28937327 -142.92745911 171.96618586 -138 176 C-128.35915073 179.21361642 -117.97111837 176.89703856 -109.1015625 172.59375 C-97.70405962 166.38225743 -88.75238307 158.08215542 -82 147 C-81.33484375 145.97648438 -80.6696875 144.95296875 -79.984375 143.8984375 C-77.31517911 139.17864948 -76.36289022 134.06109518 -75.1875 128.8125 C-72.50622006 117.55368599 -69.11706427 106.80853618 -65 96 C-64.63922363 95.04013184 -64.27844727 94.08026367 -63.90673828 93.09130859 C-27.27821492 -3.7625124 -27.27821492 -3.7625124 0 0 Z " fill="#EEEEEE" transform="translate(512,50)"/>
<path d="M0 0 C6.26477258 6.78429031 6.60776297 14.45090501 6.484375 23.37890625 C5.9759218 29.6973674 4.22464795 35.39226297 2.1640625 41.359375 C1.8753125 42.26945312 1.5865625 43.17953125 1.2890625 44.1171875 C-2.11784468 54.30749023 -7.17977864 64.23199092 -12.8359375 73.359375 C-19.20328444 72.99202806 -19.20328444 72.99202806 -22.2109375 69.984375 C-24.89554772 65.64769695 -25.08740906 62.39404516 -24.8359375 57.359375 C-24.0234375 53.94921875 -24.0234375 53.94921875 -22.8359375 50.296875 C-22.62171143 49.62422607 -22.40748535 48.95157715 -22.18676758 48.25854492 C-20.82820389 44.07954103 -19.31844077 39.97687444 -17.72265625 35.8828125 C-11.57405268 21.55261138 -11.57405268 21.55261138 -11.8359375 6.359375 C-13.60422069 4.21416829 -15.01121039 3.4917477 -17.75097656 3.05200195 C-20.12274352 2.87880951 -22.45789964 2.84104134 -24.8359375 2.859375 C-26.11198853 2.86795532 -26.11198853 2.86795532 -27.41381836 2.87670898 C-42.54917911 3.30299653 -54.28134534 12.03697462 -64.5078125 22.6171875 C-72.94549196 32.55552807 -77.5543653 43.25795865 -77.17578125 56.28125 C-76.38489925 63.44464101 -72.69394933 68.35272187 -67.54296875 73.2265625 C-59.06202969 79.90851449 -49.19214679 84.77035349 -39.5234375 89.484375 C-22.94974788 97.5959754 -5.98592074 109.11339834 0.55102539 127.14916992 C1.61305231 130.97813435 1.65197964 134.71933127 1.6015625 138.671875 C1.59398926 139.50638184 1.58641602 140.34088867 1.57861328 141.20068359 C1.29351167 151.915926 -2.40548244 159.89989286 -8.8359375 168.359375 C-9.32578125 169.03742188 -9.815625 169.71546875 -10.3203125 170.4140625 C-15.32658539 176.78342949 -21.84984339 180.43735725 -28.8359375 184.359375 C-29.51398438 184.771875 -30.19203125 185.184375 -30.890625 185.609375 C-42.16610977 192.023873 -54.62295576 192.71792444 -67.2734375 192.734375 C-69.0682959 192.73679199 -69.0682959 192.73679199 -70.89941406 192.73925781 C-80.79744564 192.61480645 -88.93857559 191.2961204 -97.7734375 186.796875 C-98.46219971 186.44681396 -99.15096191 186.09675293 -99.8605957 185.73608398 C-109.36269194 180.70739528 -116.48020072 174.30497399 -120.8359375 164.359375 C-121.34954834 163.22447632 -121.34954834 163.22447632 -121.87353516 162.06665039 C-123.55348958 157.34087295 -123.20493317 152.51545918 -123.2109375 147.546875 C-123.23542969 146.49177734 -123.25992188 145.43667969 -123.28515625 144.34960938 C-123.31498733 136.3697965 -121.86082039 131.24851015 -116.9765625 124.96875 C-109.19560924 117.31640754 -100.84537683 113.26883334 -89.8359375 113.234375 C-88.50232615 113.26591311 -87.16876525 113.30384051 -85.8359375 113.359375 C-86.19945312 113.82085937 -86.56296875 114.28234375 -86.9375 114.7578125 C-95.88316808 126.36424339 -102.77292533 138.17162951 -100.8359375 153.359375 C-98.81678862 161.46000801 -94.52599347 168.19781068 -87.55859375 172.89453125 C-75.17428434 179.96244827 -60.01637839 180.74419228 -46.13671875 177.4140625 C-35.32759194 174.22045685 -25.85899838 168.84614687 -20.0234375 158.984375 C-16.54619165 151.58832826 -16.37068108 143.21344033 -18.72265625 135.421875 C-25.7410988 120.12586732 -42.73650615 112.28908862 -56.97729492 104.97387695 C-63.61989862 101.53995994 -69.78310284 97.77121893 -75.8359375 93.359375 C-76.71636719 92.72515625 -77.59679687 92.0909375 -78.50390625 91.4375 C-86.33558584 85.51338533 -95.20464205 77.53478225 -96.8359375 67.359375 C-97.35084447 59.20527439 -97.56212871 51.14849275 -94.8359375 43.359375 C-94.54074219 42.48539063 -94.24554688 41.61140625 -93.94140625 40.7109375 C-86.4998319 20.67390693 -71.22143612 6.55113383 -52.2421875 -2.578125 C-36.60764872 -9.48168758 -13.6026025 -12.15551713 0 0 Z " fill="#EEEEEE" transform="translate(150.8359375,55.640625)"/>
<path d="M0 0 C2.91806239 1.66746422 4.55050375 2.63433304 5.61328125 5.86328125 C6.57554461 11.18002931 6.34853302 16.77443454 5 22 C4.01 22 3.02 22 2 22 C1.76152344 22.52851563 1.52304687 23.05703125 1.27734375 23.6015625 C-0.37780437 26.70939414 -2.38362824 29.52374274 -4.4375 32.375 C-4.87779541 32.98714355 -5.31809082 33.59928711 -5.77172852 34.22998047 C-27.77222353 64.59074118 -27.77222353 64.59074118 -35 67 C-35 67.66 -35 68.32 -35 69 C-39.47103245 72.91063056 -44.21407725 74.59757104 -50.01953125 75.34765625 C-52 75 -52 75 -53.734375 73.3046875 C-56.98588834 67.38372186 -55.23633352 60.01699845 -53.5 53.8125 C-46.2197921 32.3282501 -33.20380801 12.1286549 -13 1 C-8.66074489 -0.44641837 -4.53471838 -0.52796562 0 0 Z " fill="#0F1218" transform="translate(307,151)"/>
<path d="M0 0 C-1.02103427 20.42068546 -15.81084361 37.50676954 -30 51 C-31 48 -31 48 -30.07885742 45.6184082 C-29.59263916 44.68859131 -29.1064209 43.75877441 -28.60546875 42.80078125 C-28.06672119 41.76356934 -27.52797363 40.72635742 -26.97290039 39.65771484 C-26.38371826 38.55379395 -25.79453613 37.44987305 -25.1875 36.3125 C-24.59380615 35.1879541 -24.0001123 34.0634082 -23.38842773 32.90478516 C-19.94934832 26.45703078 -16.41796857 20.08375713 -12.5625 13.875 C-12.18697998 13.26825439 -11.81145996 12.66150879 -11.42456055 12.03637695 C-3.7221617 0 -3.7221617 0 0 0 Z " fill="#191D24" transform="translate(507,74)"/>
</svg>
